<svg xmlns="http://www.w3.org/2000/svg" xmlns:xlink="http://www.w3.org/1999/xlink" version="1.1" class="marks" width="1128" height="508" viewBox="0 0 1128 508"><rect width="1128" height="508" fill="white"/><g fill="none" stroke-miterlimit="10" transform="translate(60,37)"><g class="mark-group role-frame root" role="graphics-object" aria-roledescription="group mark container"><g transform="translate(0,0)"><path class="background" aria-hidden="true" d="M0,0h0v300h0Z"/><g><g class="mark-group role-scope concat_0_group" role="graphics-object" aria-roledescription="group mark container"><g transform="translate(0,0)"><path class="background" aria-hidden="true" d="M0.5,0.5h120v300h-120Z" stroke="#ddd"/><g><g class="mark-group role-axis" aria-hidden="true"><g transform="translate(0.5,0.5)"><path class="background" aria-hidden="true" d="M0,0h0v0h0Z" pointer-events="none"/><g><g class="mark-rule role-axis-grid" pointer-events="none"><line transform="translate(0,300)" x2="120" y2="0" stroke="#ddd" stroke-width="1" opacity="1"/><line transform="translate(0,263)" x2="120" y2="0" stroke="#ddd" stroke-width="1" opacity="1"/><line transform="translate(0,225)" x2="120" y2="0" stroke="#ddd" stroke-width="1" opacity="1"/><line transform="translate(0,188)" x2="120" y2="0" stroke="#ddd" stroke-width="1" opacity="1"/><line transform="translate(0,150)" x2="120" y2="0" stroke="#ddd" stroke-width="1" opacity="1"/><line transform="translate(0,113)" x2="120" y2="0" stroke="#ddd" stroke-width="1" opacity="1"/><line transform="translate(0,75)" x2="120" y2="0" stroke="#ddd" stroke-width="1" opacity="1"/><line transform="translate(0,38)" x2="120" y2="0" stroke="#ddd" stroke-width="1" opacity="1"/><line transform="translate(0,0)" x2="120" y2="0" stroke="#ddd" stroke-width="1" opacity="1"/></g></g><path class="foreground" aria-hidden="true" d="" pointer-events="none" display="none"/></g></g><g class="mark-group role-axis" role="graphics-symbol" aria-roledescription="axis" aria-label="X-axis titled 'model' for a discrete scale with 6 values: female, female_negative, negative, swear, ensemble, deberta"><g transform="translate(0.5,300.5)"><path class="background" aria-hidden="true" d="M0,0h0v0h0Z" pointer-events="none"/><g><g class="mark-rule role-axis-tick" pointer-events="none"><line transform="translate(10,0)" x2="0" y2="5" stroke="#888" stroke-width="1" opacity="1"/><line transform="translate(30,0)" x2="0" y2="5" stroke="#888" stroke-width="1" opacity="1"/><line transform="translate(50,0)" x2="0" y2="5" stroke="#888" stroke-width="1" opacity="1"/><line transform="translate(70,0)" x2="0" y2="5" stroke="#888" stroke-width="1" opacity="1"/><line transform="translate(90,0)" x2="0" y2="5" stroke="#888" stroke-width="1" opacity="1"/><line transform="translate(110,0)" x2="0" y2="5" stroke="#888" stroke-width="1" opacity="1"/></g><g class="mark-text role-axis-label" pointer-events="none"><text text-anchor="end" transform="translate(9.5,7) rotate(270) translate(0,5)" font-family="sans-serif" font-size="15px" fill="#000" opacity="1">female</text><text text-anchor="end" transform="translate(29.5,7) rotate(270) translate(0,5)" font-family="sans-serif" font-size="15px" fill="#000" opacity="1">female_negative</text><text text-anchor="end" transform="translate(49.5,7) rotate(270) translate(0,5)" font-family="sans-serif" font-size="15px" fill="#000" opacity="1">negative</text><text text-anchor="end" transform="translate(69.5,7) rotate(270) translate(0,5)" font-family="sans-serif" font-size="15px" fill="#000" opacity="1">swear</text><text text-anchor="end" transform="translate(89.5,7) rotate(270) translate(0,5)" font-family="sans-serif" font-size="15px" fill="#000" opacity="1">ensemble</text><text text-anchor="end" transform="translate(109.5,7) rotate(270) translate(0,5)" font-family="sans-serif" font-size="15px" fill="#000" opacity="1">deberta</text></g><g class="mark-rule role-axis-domain" pointer-events="none"><line transform="translate(0,0)" x2="120" y2="0" stroke="#888" stroke-width="1" opacity="1"/></g><g class="mark-text role-axis-title" pointer-events="none"><text text-anchor="middle" transform="translate(60,161.5454559326172)" font-family="sans-serif" font-size="15px" font-weight="bold" fill="#000" opacity="1">model</text></g></g><path class="foreground" aria-hidden="true" d="" pointer-events="none" display="none"/></g></g><g class="mark-group role-axis" role="graphics-symbol" aria-roledescription="axis" aria-label="Y-axis titled 'fscore' for a linear scale with values from 0.0 to 0.8"><g transform="translate(0.5,0.5)"><path class="background" aria-hidden="true" d="M0,0h0v0h0Z" pointer-events="none"/><g><g class="mark-rule role-axis-tick" pointer-events="none"><line transform="translate(0,300)" x2="-5" y2="0" stroke="#888" stroke-width="1" opacity="1"/><line transform="translate(0,263)" x2="-5" y2="0" stroke="#888" stroke-width="1" opacity="1"/><line transform="translate(0,225)" x2="-5" y2="0" stroke="#888" stroke-width="1" opacity="1"/><line transform="translate(0,188)" x2="-5" y2="0" stroke="#888" stroke-width="1" opacity="1"/><line transform="translate(0,150)" x2="-5" y2="0" stroke="#888" stroke-width="1" opacity="1"/><line transform="translate(0,113)" x2="-5" y2="0" stroke="#888" stroke-width="1" opacity="1"/><line transform="translate(0,75)" x2="-5" y2="0" stroke="#888" stroke-width="1" opacity="1"/><line transform="translate(0,38)" x2="-5" y2="0" stroke="#888" stroke-width="1" opacity="1"/><line transform="translate(0,0)" x2="-5" y2="0" stroke="#888" stroke-width="1" opacity="1"/></g><g class="mark-text role-axis-label" pointer-events="none"><text text-anchor="end" transform="translate(-7,305)" font-family="sans-serif" font-size="15px" fill="#000" opacity="1">0.0</text><text text-anchor="end" transform="translate(-7,267.5)" font-family="sans-serif" font-size="15px" fill="#000" opacity="1">0.1</text><text text-anchor="end" transform="translate(-7,230)" font-family="sans-serif" font-size="15px" fill="#000" opacity="1">0.2</text><text text-anchor="end" transform="translate(-7,192.5)" font-family="sans-serif" font-size="15px" fill="#000" opacity="1">0.3</text><text text-anchor="end" transform="translate(-7,155)" font-family="sans-serif" font-size="15px" fill="#000" opacity="1">0.4</text><text text-anchor="end" transform="translate(-7,117.5)" font-family="sans-serif" font-size="15px" fill="#000" opacity="1">0.5</text><text text-anchor="end" transform="translate(-7,80.00000000000003)" font-family="sans-serif" font-size="15px" fill="#000" opacity="1">0.6</text><text text-anchor="end" transform="translate(-7,42.500000000000036)" font-family="sans-serif" font-size="15px" fill="#000" opacity="1">0.7</text><text text-anchor="end" transform="translate(-7,5)" font-family="sans-serif" font-size="15px" fill="#000" opacity="1">0.8</text></g><g class="mark-rule role-axis-domain" pointer-events="none"><line transform="translate(0,300)" x2="0" y2="-300" stroke="#888" stroke-width="1" opacity="1"/></g><g class="mark-text role-axis-title" pointer-events="none"><text text-anchor="middle" transform="translate(-38.70909118652344,150) rotate(-90) translate(0,-3)" font-family="sans-serif" font-size="15px" font-weight="bold" fill="#000" opacity="1">fscore</text></g></g><path class="foreground" aria-hidden="true" d="" pointer-events="none" display="none"/></g></g><g class="mark-rect role-mark concat_0_marks" role="graphics-object" aria-roledescription="rect mark container"><path aria-label="model: female; fscore: 0.714285714286" role="graphics-symbol" aria-roledescription="bar" d="M1,32.14285714285716h18v267.85714285714283h-18Z" fill="#e45756"/><path aria-label="model: female_negative; fscore: 0.487804878049" role="graphics-symbol" aria-roledescription="bar" d="M21,117.07317073170732h18v182.9268292682927h-18Z" fill="#72b7b2"/><path aria-label="model: negative; fscore: 0.461538461538" role="graphics-symbol" aria-roledescription="bar" d="M41,126.92307692307693h18v173.07692307692307h-18Z" fill="#54a24b"/><path aria-label="model: swear; fscore: 0.45" role="graphics-symbol" aria-roledescription="bar" d="M61,131.25h18v168.75h-18Z" fill="#eeca3b"/><path aria-label="model: ensemble; fscore: 0.432432432432" role="graphics-symbol" aria-roledescription="bar" d="M81,137.83783783783784h18v162.16216216216216h-18Z" fill="#f58518"/><path aria-label="model: deberta; fscore: 0.388888888889" role="graphics-symbol" aria-roledescription="bar" d="M101,154.16666666666666h18v145.83333333333334h-18Z" fill="#4c78a8"/></g></g><path class="foreground" aria-hidden="true" d="" display="none"/></g></g><g class="mark-group role-scope concat_1_group" role="graphics-object" aria-roledescription="group mark container"><g transform="translate(196,0)"><path class="background" aria-hidden="true" d="M0.5,0.5h120v300h-120Z" stroke="#ddd"/><g><g class="mark-group role-axis" aria-hidden="true"><g transform="translate(0.5,0.5)"><path class="background" aria-hidden="true" d="M0,0h0v0h0Z" pointer-events="none"/><g><g class="mark-rule role-axis-grid" pointer-events="none"><line transform="translate(0,300)" x2="120" y2="0" stroke="#ddd" stroke-width="1" opacity="1"/><line transform="translate(0,263)" x2="120" y2="0" stroke="#ddd" stroke-width="1" opacity="1"/><line transform="translate(0,225)" x2="120" y2="0" stroke="#ddd" stroke-width="1" opacity="1"/><line transform="translate(0,188)" x2="120" y2="0" stroke="#ddd" stroke-width="1" opacity="1"/><line transform="translate(0,150)" x2="120" y2="0" stroke="#ddd" stroke-width="1" opacity="1"/><line transform="translate(0,113)" x2="120" y2="0" stroke="#ddd" stroke-width="1" opacity="1"/><line transform="translate(0,75)" x2="120" y2="0" stroke="#ddd" stroke-width="1" opacity="1"/><line transform="translate(0,38)" x2="120" y2="0" stroke="#ddd" stroke-width="1" opacity="1"/><line transform="translate(0,0)" x2="120" y2="0" stroke="#ddd" stroke-width="1" opacity="1"/></g></g><path class="foreground" aria-hidden="true" d="" pointer-events="none" display="none"/></g></g><g class="mark-group role-axis" role="graphics-symbol" aria-roledescription="axis" aria-label="X-axis titled 'model' for a discrete scale with 6 values: female, female_negative, negative, swear, ensemble, deberta"><g transform="translate(0.5,300.5)"><path class="background" aria-hidden="true" d="M0,0h0v0h0Z" pointer-events="none"/><g><g class="mark-rule role-axis-tick" pointer-events="none"><line transform="translate(10,0)" x2="0" y2="5" stroke="#888" stroke-width="1" opacity="1"/><line transform="translate(30,0)" x2="0" y2="5" stroke="#888" stroke-width="1" opacity="1"/><line transform="translate(50,0)" x2="0" y2="5" stroke="#888" stroke-width="1" opacity="1"/><line transform="translate(70,0)" x2="0" y2="5" stroke="#888" stroke-width="1" opacity="1"/><line transform="translate(90,0)" x2="0" y2="5" stroke="#888" stroke-width="1" opacity="1"/><line transform="translate(110,0)" x2="0" y2="5" stroke="#888" stroke-width="1" opacity="1"/></g><g class="mark-text role-axis-label" pointer-events="none"><text text-anchor="end" transform="translate(9.5,7) rotate(270) translate(0,5)" font-family="sans-serif" font-size="15px" fill="#000" opacity="1">female</text><text text-anchor="end" transform="translate(29.5,7) rotate(270) translate(0,5)" font-family="sans-serif" font-size="15px" fill="#000" opacity="1">female_negative</text><text text-anchor="end" transform="translate(49.5,7) rotate(270) translate(0,5)" font-family="sans-serif" font-size="15px" fill="#000" opacity="1">negative</text><text text-anchor="end" transform="translate(69.5,7) rotate(270) translate(0,5)" font-family="sans-serif" font-size="15px" fill="#000" opacity="1">swear</text><text text-anchor="end" transform="translate(89.5,7) rotate(270) translate(0,5)" font-family="sans-serif" font-size="15px" fill="#000" opacity="1">ensemble</text><text text-anchor="end" transform="translate(109.5,7) rotate(270) translate(0,5)" font-family="sans-serif" font-size="15px" fill="#000" opacity="1">deberta</text></g><g class="mark-rule role-axis-domain" pointer-events="none"><line transform="translate(0,0)" x2="120" y2="0" stroke="#888" stroke-width="1" opacity="1"/></g><g class="mark-text role-axis-title" pointer-events="none"><text text-anchor="middle" transform="translate(60,161.5454559326172)" font-family="sans-serif" font-size="15px" font-weight="bold" fill="#000" opacity="1">model</text></g></g><path class="foreground" aria-hidden="true" d="" pointer-events="none" display="none"/></g></g><g class="mark-group role-axis" role="graphics-symbol" aria-roledescription="axis" aria-label="Y-axis titled 'recall' for a linear scale with values from 0.0 to 0.8"><g transform="translate(0.5,0.5)"><path class="background" aria-hidden="true" d="M0,0h0v0h0Z" pointer-events="none"/><g><g class="mark-rule role-axis-tick" pointer-events="none"><line transform="translate(0,300)" x2="-5" y2="0" stroke="#888" stroke-width="1" opacity="1"/><line transform="translate(0,263)" x2="-5" y2="0" stroke="#888" stroke-width="1" opacity="1"/><line transform="translate(0,225)" x2="-5" y2="0" stroke="#888" stroke-width="1" opacity="1"/><line transform="translate(0,188)" x2="-5" y2="0" stroke="#888" stroke-width="1" opacity="1"/><line transform="translate(0,150)" x2="-5" y2="0" stroke="#888" stroke-width="1" opacity="1"/><line transform="translate(0,113)" x2="-5" y2="0" stroke="#888" stroke-width="1" opacity="1"/><line transform="translate(0,75)" x2="-5" y2="0" stroke="#888" stroke-width="1" opacity="1"/><line transform="translate(0,38)" x2="-5" y2="0" stroke="#888" stroke-width="1" opacity="1"/><line transform="translate(0,0)" x2="-5" y2="0" stroke="#888" stroke-width="1" opacity="1"/></g><g class="mark-text role-axis-label" pointer-events="none"><text text-anchor="end" transform="translate(-7,305)" font-family="sans-serif" font-size="15px" fill="#000" opacity="1">0.0</text><text text-anchor="end" transform="translate(-7,267.5)" font-family="sans-serif" font-size="15px" fill="#000" opacity="1">0.1</text><text text-anchor="end" transform="translate(-7,230)" font-family="sans-serif" font-size="15px" fill="#000" opacity="1">0.2</text><text text-anchor="end" transform="translate(-7,192.5)" font-family="sans-serif" font-size="15px" fill="#000" opacity="1">0.3</text><text text-anchor="end" transform="translate(-7,155)" font-family="sans-serif" font-size="15px" fill="#000" opacity="1">0.4</text><text text-anchor="end" transform="translate(-7,117.5)" font-family="sans-serif" font-size="15px" fill="#000" opacity="1">0.5</text><text text-anchor="end" transform="translate(-7,80.00000000000003)" font-family="sans-serif" font-size="15px" fill="#000" opacity="1">0.6</text><text text-anchor="end" transform="translate(-7,42.500000000000036)" font-family="sans-serif" font-size="15px" fill="#000" opacity="1">0.7</text><text text-anchor="end" transform="translate(-7,5)" font-family="sans-serif" font-size="15px" fill="#000" opacity="1">0.8</text></g><g class="mark-rule role-axis-domain" pointer-events="none"><line transform="translate(0,300)" x2="0" y2="-300" stroke="#888" stroke-width="1" opacity="1"/></g><g class="mark-text role-axis-title" pointer-events="none"><text text-anchor="middle" transform="translate(-38.70909118652344,150) rotate(-90) translate(0,-3)" font-family="sans-serif" font-size="15px" font-weight="bold" fill="#000" opacity="1">recall</text></g></g><path class="foreground" aria-hidden="true" d="" pointer-events="none" display="none"/></g></g><g class="mark-rect role-mark concat_1_marks" role="graphics-object" aria-roledescription="rect mark container"><path aria-label="model: female; recall: 0.714285714286" role="graphics-symbol" aria-roledescription="bar" d="M1,32.14285714285716h18v267.85714285714283h-18Z" fill="#e45756"/><path aria-label="model: female_negative; recall: 0.357142857143" role="graphics-symbol" aria-roledescription="bar" d="M21,166.07142857142858h18v133.92857142857142h-18Z" fill="#72b7b2"/><path aria-label="model: negative; recall: 0.428571428571" role="graphics-symbol" aria-roledescription="bar" d="M41,139.28571428571428h18v160.71428571428572h-18Z" fill="#54a24b"/><path aria-label="model: swear; recall: 0.321428571429" role="graphics-symbol" aria-roledescription="bar" d="M61,179.46428571428572h18v120.53571428571428h-18Z" fill="#eeca3b"/><path aria-label="model: ensemble; recall: 0.285714285714" role="graphics-symbol" aria-roledescription="bar" d="M81,192.85714285714286h18v107.14285714285714h-18Z" fill="#f58518"/><path aria-label="model: deberta; recall: 0.25" role="graphics-symbol" aria-roledescription="bar" d="M101,206.25h18v93.75h-18Z" fill="#4c78a8"/></g></g><path class="foreground" aria-hidden="true" d="" display="none"/></g></g><g class="mark-group role-scope concat_2_group" role="graphics-object" aria-roledescription="group mark container"><g transform="translate(392,0)"><path class="background" aria-hidden="true" d="M0.5,0.5h120v300h-120Z" stroke="#ddd"/><g><g class="mark-group role-axis" aria-hidden="true"><g transform="translate(0.5,0.5)"><path class="background" aria-hidden="true" d="M0,0h0v0h0Z" pointer-events="none"/><g><g class="mark-rule role-axis-grid" pointer-events="none"><line transform="translate(0,300)" x2="120" y2="0" stroke="#ddd" stroke-width="1" opacity="1"/><line transform="translate(0,267)" x2="120" y2="0" stroke="#ddd" stroke-width="1" opacity="1"/><line transform="translate(0,233)" x2="120" y2="0" stroke="#ddd" stroke-width="1" opacity="1"/><line transform="translate(0,200)" x2="120" y2="0" stroke="#ddd" stroke-width="1" opacity="1"/><line transform="translate(0,167)" x2="120" y2="0" stroke="#ddd" stroke-width="1" opacity="1"/><line transform="translate(0,133)" x2="120" y2="0" stroke="#ddd" stroke-width="1" opacity="1"/><line transform="translate(0,100)" x2="120" y2="0" stroke="#ddd" stroke-width="1" opacity="1"/><line transform="translate(0,67)" x2="120" y2="0" stroke="#ddd" stroke-width="1" opacity="1"/><line transform="translate(0,33)" x2="120" y2="0" stroke="#ddd" stroke-width="1" opacity="1"/><line transform="translate(0,0)" x2="120" y2="0" stroke="#ddd" stroke-width="1" opacity="1"/></g></g><path class="foreground" aria-hidden="true" d="" pointer-events="none" display="none"/></g></g><g class="mark-group role-axis" role="graphics-symbol" aria-roledescription="axis" aria-label="X-axis titled 'model' for a discrete scale with 6 values: female, female_negative, negative, swear, ensemble, deberta"><g transform="translate(0.5,300.5)"><path class="background" aria-hidden="true" d="M0,0h0v0h0Z" pointer-events="none"/><g><g class="mark-rule role-axis-tick" pointer-events="none"><line transform="translate(10,0)" x2="0" y2="5" stroke="#888" stroke-width="1" opacity="1"/><line transform="translate(30,0)" x2="0" y2="5" stroke="#888" stroke-width="1" opacity="1"/><line transform="translate(50,0)" x2="0" y2="5" stroke="#888" stroke-width="1" opacity="1"/><line transform="translate(70,0)" x2="0" y2="5" stroke="#888" stroke-width="1" opacity="1"/><line transform="translate(90,0)" x2="0" y2="5" stroke="#888" stroke-width="1" opacity="1"/><line transform="translate(110,0)" x2="0" y2="5" stroke="#888" stroke-width="1" opacity="1"/></g><g class="mark-text role-axis-label" pointer-events="none"><text text-anchor="end" transform="translate(9.5,7) rotate(270) translate(0,5)" font-family="sans-serif" font-size="15px" fill="#000" opacity="1">female</text><text text-anchor="end" transform="translate(29.5,7) rotate(270) translate(0,5)" font-family="sans-serif" font-size="15px" fill="#000" opacity="1">female_negative</text><text text-anchor="end" transform="translate(49.5,7) rotate(270) translate(0,5)" font-family="sans-serif" font-size="15px" fill="#000" opacity="1">negative</text><text text-anchor="end" transform="translate(69.5,7) rotate(270) translate(0,5)" font-family="sans-serif" font-size="15px" fill="#000" opacity="1">swear</text><text text-anchor="end" transform="translate(89.5,7) rotate(270) translate(0,5)" font-family="sans-serif" font-size="15px" fill="#000" opacity="1">ensemble</text><text text-anchor="end" transform="translate(109.5,7) rotate(270) translate(0,5)" font-family="sans-serif" font-size="15px" fill="#000" opacity="1">deberta</text></g><g class="mark-rule role-axis-domain" pointer-events="none"><line transform="translate(0,0)" x2="120" y2="0" stroke="#888" stroke-width="1" opacity="1"/></g><g class="mark-text role-axis-title" pointer-events="none"><text text-anchor="middle" transform="translate(60,161.5454559326172)" font-family="sans-serif" font-size="15px" font-weight="bold" fill="#000" opacity="1">model</text></g></g><path class="foreground" aria-hidden="true" d="" pointer-events="none" display="none"/></g></g><g class="mark-group role-axis" role="graphics-symbol" aria-roledescription="axis" aria-label="Y-axis titled 'precision' for a linear scale with values from 0.0 to 0.9"><g transform="translate(0.5,0.5)"><path class="background" aria-hidden="true" d="M0,0h0v0h0Z" pointer-events="none"/><g><g class="mark-rule role-axis-tick" pointer-events="none"><line transform="translate(0,300)" x2="-5" y2="0" stroke="#888" stroke-width="1" opacity="1"/><line transform="translate(0,267)" x2="-5" y2="0" stroke="#888" stroke-width="1" opacity="1"/><line transform="translate(0,233)" x2="-5" y2="0" stroke="#888" stroke-width="1" opacity="1"/><line transform="translate(0,200)" x2="-5" y2="0" stroke="#888" stroke-width="1" opacity="1"/><line transform="translate(0,167)" x2="-5" y2="0" stroke="#888" stroke-width="1" opacity="1"/><line transform="translate(0,133)" x2="-5" y2="0" stroke="#888" stroke-width="1" opacity="1"/><line transform="translate(0,100)" x2="-5" y2="0" stroke="#888" stroke-width="1" opacity="1"/><line transform="translate(0,67)" x2="-5" y2="0" stroke="#888" stroke-width="1" opacity="1"/><line transform="translate(0,33)" x2="-5" y2="0" stroke="#888" stroke-width="1" opacity="1"/><line transform="translate(0,0)" x2="-5" y2="0" stroke="#888" stroke-width="1" opacity="1"/></g><g class="mark-text role-axis-label" pointer-events="none"><text text-anchor="end" transform="translate(-7,305)" font-family="sans-serif" font-size="15px" fill="#000" opacity="1">0.0</text><text text-anchor="end" transform="translate(-7,271.66666666666663)" font-family="sans-serif" font-size="15px" fill="#000" opacity="1">0.1</text><text text-anchor="end" transform="translate(-7,238.33333333333334)" font-family="sans-serif" font-size="15px" fill="#000" opacity="1">0.2</text><text text-anchor="end" transform="translate(-7,205.00000000000003)" font-family="sans-serif" font-size="15px" fill="#000" opacity="1">0.3</text><text text-anchor="end" transform="translate(-7,171.66666666666669)" font-family="sans-serif" font-size="15px" fill="#000" opacity="1">0.4</text><text text-anchor="end" transform="translate(-7,138.33333333333331)" font-family="sans-serif" font-size="15px" fill="#000" opacity="1">0.5</text><text text-anchor="end" transform="translate(-7,105.00000000000001)" font-family="sans-serif" font-size="15px" fill="#000" opacity="1">0.6</text><text text-anchor="end" transform="translate(-7,71.6666666666667)" font-family="sans-serif" font-size="15px" fill="#000" opacity="1">0.7</text><text text-anchor="end" transform="translate(-7,38.333333333333314)" font-family="sans-serif" font-size="15px" fill="#000" opacity="1">0.8</text><text text-anchor="end" transform="translate(-7,5)" font-family="sans-serif" font-size="15px" fill="#000" opacity="1">0.9</text></g><g class="mark-rule role-axis-domain" pointer-events="none"><line transform="translate(0,300)" x2="0" y2="-300" stroke="#888" stroke-width="1" opacity="1"/></g><g class="mark-text role-axis-title" pointer-events="none"><text text-anchor="middle" transform="translate(-38.70909118652344,150) rotate(-90) translate(0,-3)" font-family="sans-serif" font-size="15px" font-weight="bold" fill="#000" opacity="1">precision</text></g></g><path class="foreground" aria-hidden="true" d="" pointer-events="none" display="none"/></g></g><g class="mark-rect role-mark concat_2_marks" role="graphics-object" aria-roledescription="rect mark container"><path aria-label="model: female; precision: 0.714285714286" role="graphics-symbol" aria-roledescription="bar" d="M1,61.90476190476192h18v238.09523809523807h-18Z" fill="#e45756"/><path aria-label="model: female_negative; precision: 0.769230769231" role="graphics-symbol" aria-roledescription="bar" d="M21,43.58974358974357h18v256.4102564102564h-18Z" fill="#72b7b2"/><path aria-label="model: negative; precision: 0.5" role="graphics-symbol" aria-roledescription="bar" d="M41,133.33333333333331h18v166.66666666666669h-18Z" fill="#54a24b"/><path aria-label="model: swear; precision: 0.75" role="graphics-symbol" aria-roledescription="bar" d="M61,50.00000000000002h18v249.99999999999997h-18Z" fill="#eeca3b"/><path aria-label="model: ensemble; precision: 0.888888888889" role="graphics-symbol" aria-roledescription="bar" d="M81,3.70370370370372h18v296.2962962962963h-18Z" fill="#f58518"/><path aria-label="model: deberta; precision: 0.875" role="graphics-symbol" aria-roledescription="bar" d="M101,8.333333333333337h18v291.6666666666667h-18Z" fill="#4c78a8"/></g></g><path class="foreground" aria-hidden="true" d="" display="none"/></g></g><g class="mark-group role-scope concat_3_group" role="graphics-object" aria-roledescription="group mark container"><g transform="translate(579,0)"><path class="background" aria-hidden="true" d="M0.5,0.5h120v300h-120Z" stroke="#ddd"/><g><g class="mark-group role-axis" aria-hidden="true"><g transform="translate(0.5,0.5)"><path class="background" aria-hidden="true" d="M0,0h0v0h0Z" pointer-events="none"/><g><g class="mark-rule role-axis-grid" pointer-events="none"><line transform="translate(0,300)" x2="120" y2="0" stroke="#ddd" stroke-width="1" opacity="1"/><line transform="translate(0,273)" x2="120" y2="0" stroke="#ddd" stroke-width="1" opacity="1"/><line transform="translate(0,245)" x2="120" y2="0" stroke="#ddd" stroke-width="1" opacity="1"/><line transform="translate(0,218)" x2="120" y2="0" stroke="#ddd" stroke-width="1" opacity="1"/><line transform="translate(0,191)" x2="120" y2="0" stroke="#ddd" stroke-width="1" opacity="1"/><line transform="translate(0,164)" x2="120" y2="0" stroke="#ddd" stroke-width="1" opacity="1"/><line transform="translate(0,136)" x2="120" y2="0" stroke="#ddd" stroke-width="1" opacity="1"/><line transform="translate(0,109)" x2="120" y2="0" stroke="#ddd" stroke-width="1" opacity="1"/><line transform="translate(0,82)" x2="120" y2="0" stroke="#ddd" stroke-width="1" opacity="1"/><line transform="translate(0,55)" x2="120" y2="0" stroke="#ddd" stroke-width="1" opacity="1"/><line transform="translate(0,27)" x2="120" y2="0" stroke="#ddd" stroke-width="1" opacity="1"/><line transform="translate(0,0)" x2="120" y2="0" stroke="#ddd" stroke-width="1" opacity="1"/></g></g><path class="foreground" aria-hidden="true" d="" pointer-events="none" display="none"/></g></g><g class="mark-group role-axis" role="graphics-symbol" aria-roledescription="axis" aria-label="X-axis titled 'model' for a discrete scale with 6 values: female, female_negative, negative, swear, ensemble, deberta"><g transform="translate(0.5,300.5)"><path class="background" aria-hidden="true" d="M0,0h0v0h0Z" pointer-events="none"/><g><g class="mark-rule role-axis-tick" pointer-events="none"><line transform="translate(10,0)" x2="0" y2="5" stroke="#888" stroke-width="1" opacity="1"/><line transform="translate(30,0)" x2="0" y2="5" stroke="#888" stroke-width="1" opacity="1"/><line transform="translate(50,0)" x2="0" y2="5" stroke="#888" stroke-width="1" opacity="1"/><line transform="translate(70,0)" x2="0" y2="5" stroke="#888" stroke-width="1" opacity="1"/><line transform="translate(90,0)" x2="0" y2="5" stroke="#888" stroke-width="1" opacity="1"/><line transform="translate(110,0)" x2="0" y2="5" stroke="#888" stroke-width="1" opacity="1"/></g><g class="mark-text role-axis-label" pointer-events="none"><text text-anchor="end" transform="translate(9.5,7) rotate(270) translate(0,5)" font-family="sans-serif" font-size="15px" fill="#000" opacity="1">female</text><text text-anchor="end" transform="translate(29.5,7) rotate(270) translate(0,5)" font-family="sans-serif" font-size="15px" fill="#000" opacity="1">female_negative</text><text text-anchor="end" transform="translate(49.5,7) rotate(270) translate(0,5)" font-family="sans-serif" font-size="15px" fill="#000" opacity="1">negative</text><text text-anchor="end" transform="translate(69.5,7) rotate(270) translate(0,5)" font-family="sans-serif" font-size="15px" fill="#000" opacity="1">swear</text><text text-anchor="end" transform="translate(89.5,7) rotate(270) translate(0,5)" font-family="sans-serif" font-size="15px" fill="#000" opacity="1">ensemble</text><text text-anchor="end" transform="translate(109.5,7) rotate(270) translate(0,5)" font-family="sans-serif" font-size="15px" fill="#000" opacity="1">deberta</text></g><g class="mark-rule role-axis-domain" pointer-events="none"><line transform="translate(0,0)" x2="120" y2="0" stroke="#888" stroke-width="1" opacity="1"/></g><g class="mark-text role-axis-title" pointer-events="none"><text text-anchor="middle" transform="translate(60,161.5454559326172)" font-family="sans-serif" font-size="15px" font-weight="bold" fill="#000" opacity="1">model</text></g></g><path class="foreground" aria-hidden="true" d="" pointer-events="none" display="none"/></g></g><g class="mark-group role-axis" role="graphics-symbol" aria-roledescription="axis" aria-label="Y-axis titled 'fn' for a linear scale with values from 0 to 22"><g transform="translate(0.5,0.5)"><path class="background" aria-hidden="true" d="M0,0h0v0h0Z" pointer-events="none"/><g><g class="mark-rule role-axis-tick" pointer-events="none"><line transform="translate(0,300)" x2="-5" y2="0" stroke="#888" stroke-width="1" opacity="1"/><line transform="translate(0,273)" x2="-5" y2="0" stroke="#888" stroke-width="1" opacity="1"/><line transform="translate(0,245)" x2="-5" y2="0" stroke="#888" stroke-width="1" opacity="1"/><line transform="translate(0,218)" x2="-5" y2="0" stroke="#888" stroke-width="1" opacity="1"/><line transform="translate(0,191)" x2="-5" y2="0" stroke="#888" stroke-width="1" opacity="1"/><line transform="translate(0,164)" x2="-5" y2="0" stroke="#888" stroke-width="1" opacity="1"/><line transform="translate(0,136)" x2="-5" y2="0" stroke="#888" stroke-width="1" opacity="1"/><line transform="translate(0,109)" x2="-5" y2="0" stroke="#888" stroke-width="1" opacity="1"/><line transform="translate(0,82)" x2="-5" y2="0" stroke="#888" stroke-width="1" opacity="1"/><line transform="translate(0,55)" x2="-5" y2="0" stroke="#888" stroke-width="1" opacity="1"/><line transform="translate(0,27)" x2="-5" y2="0" stroke="#888" stroke-width="1" opacity="1"/><line transform="translate(0,0)" x2="-5" y2="0" stroke="#888" stroke-width="1" opacity="1"/></g><g class="mark-text role-axis-label" pointer-events="none"><text text-anchor="end" transform="translate(-7,305)" font-family="sans-serif" font-size="15px" fill="#000" opacity="1">0</text><text text-anchor="end" transform="translate(-7,277.7272727272727)" font-family="sans-serif" font-size="15px" fill="#000" opacity="1">2</text><text text-anchor="end" transform="translate(-7,250.45454545454544)" font-family="sans-serif" font-size="15px" fill="#000" opacity="1">4</text><text text-anchor="end" transform="translate(-7,223.1818181818182)" font-family="sans-serif" font-size="15px" fill="#000" opacity="1">6</text><text text-anchor="end" transform="translate(-7,195.9090909090909)" font-family="sans-serif" font-size="15px" fill="#000" opacity="1">8</text><text text-anchor="end" transform="translate(-7,168.63636363636363)" font-family="sans-serif" font-size="15px" fill="#000" opacity="1">10</text><text text-anchor="end" transform="translate(-7,141.36363636363637)" font-family="sans-serif" font-size="15px" fill="#000" opacity="1">12</text><text text-anchor="end" transform="translate(-7,114.0909090909091)" font-family="sans-serif" font-size="15px" fill="#000" opacity="1">14</text><text text-anchor="end" transform="translate(-7,86.81818181818181)" font-family="sans-serif" font-size="15px" fill="#000" opacity="1">16</text><text text-anchor="end" transform="translate(-7,59.54545454545453)" font-family="sans-serif" font-size="15px" fill="#000" opacity="1">18</text><text text-anchor="end" transform="translate(-7,32.27272727272728)" font-family="sans-serif" font-size="15px" fill="#000" opacity="1">20</text><text text-anchor="end" transform="translate(-7,5)" font-family="sans-serif" font-size="15px" fill="#000" opacity="1">22</text></g><g class="mark-rule role-axis-domain" pointer-events="none"><line transform="translate(0,300)" x2="0" y2="-300" stroke="#888" stroke-width="1" opacity="1"/></g><g class="mark-text role-axis-title" pointer-events="none"><text text-anchor="middle" transform="translate(-29.472726821899414,150) rotate(-90) translate(0,-3)" font-family="sans-serif" font-size="15px" font-weight="bold" fill="#000" opacity="1">fn</text></g></g><path class="foreground" aria-hidden="true" d="" pointer-events="none" display="none"/></g></g><g class="mark-rect role-mark concat_3_marks" role="graphics-object" aria-roledescription="rect mark container"><path aria-label="model: female; fn: 8" role="graphics-symbol" aria-roledescription="bar" d="M1,190.9090909090909h18v109.0909090909091h-18Z" fill="#e45756"/><path aria-label="model: female_negative; fn: 18" role="graphics-symbol" aria-roledescription="bar" d="M21,54.54545454545453h18v245.45454545454547h-18Z" fill="#72b7b2"/><path aria-label="model: negative; fn: 16" role="graphics-symbol" aria-roledescription="bar" d="M41,81.81818181818181h18v218.1818181818182h-18Z" fill="#54a24b"/><path aria-label="model: swear; fn: 19" role="graphics-symbol" aria-roledescription="bar" d="M61,40.90909090909091h18v259.0909090909091h-18Z" fill="#eeca3b"/><path aria-label="model: ensemble; fn: 20" role="graphics-symbol" aria-roledescription="bar" d="M81,27.27272727272728h18v272.72727272727275h-18Z" fill="#f58518"/><path aria-label="model: deberta; fn: 21" role="graphics-symbol" aria-roledescription="bar" d="M101,13.636363636363624h18v286.3636363636364h-18Z" fill="#4c78a8"/></g></g><path class="foreground" aria-hidden="true" d="" display="none"/></g></g><g class="mark-group role-scope concat_4_group" role="graphics-object" aria-roledescription="group mark container"><g transform="translate(766,0)"><path class="background" aria-hidden="true" d="M0.5,0.5h120v300h-120Z" stroke="#ddd"/><g><g class="mark-group role-axis" aria-hidden="true"><g transform="translate(0.5,0.5)"><path class="background" aria-hidden="true" d="M0,0h0v0h0Z" pointer-events="none"/><g><g class="mark-rule role-axis-grid" pointer-events="none"><line transform="translate(0,300)" x2="120" y2="0" stroke="#ddd" stroke-width="1" opacity="1"/><line transform="translate(0,250)" x2="120" y2="0" stroke="#ddd" stroke-width="1" opacity="1"/><line transform="translate(0,200)" x2="120" y2="0" stroke="#ddd" stroke-width="1" opacity="1"/><line transform="translate(0,150)" x2="120" y2="0" stroke="#ddd" stroke-width="1" opacity="1"/><line transform="translate(0,100)" x2="120" y2="0" stroke="#ddd" stroke-width="1" opacity="1"/><line transform="translate(0,50)" x2="120" y2="0" stroke="#ddd" stroke-width="1" opacity="1"/><line transform="translate(0,0)" x2="120" y2="0" stroke="#ddd" stroke-width="1" opacity="1"/></g></g><path class="foreground" aria-hidden="true" d="" pointer-events="none" display="none"/></g></g><g class="mark-group role-axis" role="graphics-symbol" aria-roledescription="axis" aria-label="X-axis titled 'model' for a discrete scale with 6 values: female, female_negative, negative, swear, ensemble, deberta"><g transform="translate(0.5,300.5)"><path class="background" aria-hidden="true" d="M0,0h0v0h0Z" pointer-events="none"/><g><g class="mark-rule role-axis-tick" pointer-events="none"><line transform="translate(10,0)" x2="0" y2="5" stroke="#888" stroke-width="1" opacity="1"/><line transform="translate(30,0)" x2="0" y2="5" stroke="#888" stroke-width="1" opacity="1"/><line transform="translate(50,0)" x2="0" y2="5" stroke="#888" stroke-width="1" opacity="1"/><line transform="translate(70,0)" x2="0" y2="5" stroke="#888" stroke-width="1" opacity="1"/><line transform="translate(90,0)" x2="0" y2="5" stroke="#888" stroke-width="1" opacity="1"/><line transform="translate(110,0)" x2="0" y2="5" stroke="#888" stroke-width="1" opacity="1"/></g><g class="mark-text role-axis-label" pointer-events="none"><text text-anchor="end" transform="translate(9.5,7) rotate(270) translate(0,5)" font-family="sans-serif" font-size="15px" fill="#000" opacity="1">female</text><text text-anchor="end" transform="translate(29.5,7) rotate(270) translate(0,5)" font-family="sans-serif" font-size="15px" fill="#000" opacity="1">female_negative</text><text text-anchor="end" transform="translate(49.5,7) rotate(270) translate(0,5)" font-family="sans-serif" font-size="15px" fill="#000" opacity="1">negative</text><text text-anchor="end" transform="translate(69.5,7) rotate(270) translate(0,5)" font-family="sans-serif" font-size="15px" fill="#000" opacity="1">swear</text><text text-anchor="end" transform="translate(89.5,7) rotate(270) translate(0,5)" font-family="sans-serif" font-size="15px" fill="#000" opacity="1">ensemble</text><text text-anchor="end" transform="translate(109.5,7) rotate(270) translate(0,5)" font-family="sans-serif" font-size="15px" fill="#000" opacity="1">deberta</text></g><g class="mark-rule role-axis-domain" pointer-events="none"><line transform="translate(0,0)" x2="120" y2="0" stroke="#888" stroke-width="1" opacity="1"/></g><g class="mark-text role-axis-title" pointer-events="none"><text text-anchor="middle" transform="translate(60,161.5454559326172)" font-family="sans-serif" font-size="15px" font-weight="bold" fill="#000" opacity="1">model</text></g></g><path class="foreground" aria-hidden="true" d="" pointer-events="none" display="none"/></g></g><g class="mark-group role-axis" role="graphics-symbol" aria-roledescription="axis" aria-label="Y-axis titled 'fp' for a linear scale with values from 0 to 12"><g transform="translate(0.5,0.5)"><path class="background" aria-hidden="true" d="M0,0h0v0h0Z" pointer-events="none"/><g><g class="mark-rule role-axis-tick" pointer-events="none"><line transform="translate(0,300)" x2="-5" y2="0" stroke="#888" stroke-width="1" opacity="1"/><line transform="translate(0,250)" x2="-5" y2="0" stroke="#888" stroke-width="1" opacity="1"/><line transform="translate(0,200)" x2="-5" y2="0" stroke="#888" stroke-width="1" opacity="1"/><line transform="translate(0,150)" x2="-5" y2="0" stroke="#888" stroke-width="1" opacity="1"/><line transform="translate(0,100)" x2="-5" y2="0" stroke="#888" stroke-width="1" opacity="1"/><line transform="translate(0,50)" x2="-5" y2="0" stroke="#888" stroke-width="1" opacity="1"/><line transform="translate(0,0)" x2="-5" y2="0" stroke="#888" stroke-width="1" opacity="1"/></g><g class="mark-text role-axis-label" pointer-events="none"><text text-anchor="end" transform="translate(-7,305)" font-family="sans-serif" font-size="15px" fill="#000" opacity="1">0</text><text text-anchor="end" transform="translate(-7,255)" font-family="sans-serif" font-size="15px" fill="#000" opacity="1">2</text><text text-anchor="end" transform="translate(-7,205.00000000000003)" font-family="sans-serif" font-size="15px" fill="#000" opacity="1">4</text><text text-anchor="end" transform="translate(-7,155)" font-family="sans-serif" font-size="15px" fill="#000" opacity="1">6</text><text text-anchor="end" transform="translate(-7,105.00000000000001)" font-family="sans-serif" font-size="15px" fill="#000" opacity="1">8</text><text text-anchor="end" transform="translate(-7,54.999999999999986)" font-family="sans-serif" font-size="15px" fill="#000" opacity="1">10</text><text text-anchor="end" transform="translate(-7,5)" font-family="sans-serif" font-size="15px" fill="#000" opacity="1">12</text></g><g class="mark-rule role-axis-domain" pointer-events="none"><line transform="translate(0,300)" x2="0" y2="-300" stroke="#888" stroke-width="1" opacity="1"/></g><g class="mark-text role-axis-title" pointer-events="none"><text text-anchor="middle" transform="translate(-29.472726821899414,150) rotate(-90) translate(0,-3)" font-family="sans-serif" font-size="15px" font-weight="bold" fill="#000" opacity="1">fp</text></g></g><path class="foreground" aria-hidden="true" d="" pointer-events="none" display="none"/></g></g><g class="mark-rect role-mark concat_4_marks" role="graphics-object" aria-roledescription="rect mark container"><path aria-label="model: female; fp: 8" role="graphics-symbol" aria-roledescription="bar" d="M1,100.00000000000001h18v200h-18Z" fill="#e45756"/><path aria-label="model: female_negative; fp: 3" role="graphics-symbol" aria-roledescription="bar" d="M21,225h18v75h-18Z" fill="#72b7b2"/><path aria-label="model: negative; fp: 12" role="graphics-symbol" aria-roledescription="bar" d="M41,0h18v300h-18Z" fill="#54a24b"/><path aria-label="model: swear; fp: 3" role="graphics-symbol" aria-roledescription="bar" d="M61,225h18v75h-18Z" fill="#eeca3b"/><path aria-label="model: ensemble; fp: 1" role="graphics-symbol" aria-roledescription="bar" d="M81,275h18v25h-18Z" fill="#f58518"/><path aria-label="model: deberta; fp: 1" role="graphics-symbol" aria-roledescription="bar" d="M101,275h18v25h-18Z" fill="#4c78a8"/></g></g><path class="foreground" aria-hidden="true" d="" display="none"/></g></g><g class="mark-group role-legend" role="graphics-symbol" aria-roledescription="legend" aria-label="Symbol legend titled 'model' for fill color with 6 values: deberta, ensemble, female, female_negative, negative, swear"><g transform="translate(905,0)"><path class="background" aria-hidden="true" d="M0,0h158v126h-158Z" pointer-events="none"/><g><g class="mark-group role-legend-entry"><g transform="translate(0,20)"><path class="background" aria-hidden="true" d="M0,0h0v0h0Z" pointer-events="none"/><g><g class="mark-group role-scope" role="graphics-object" aria-roledescription="group mark container"><g transform="translate(0,0)"><path class="background" aria-hidden="true" d="M0,0h157.5454559326172v15.5h-157.5454559326172Z" pointer-events="none" opacity="1"/><g><g class="mark-symbol role-legend-symbol" pointer-events="none"><path transform="translate(7.5,7.5)" d="M-5,-5h10v10h-10Z" fill="#4c78a8" stroke-width="1.5" opacity="1"/></g><g class="mark-text role-legend-label" pointer-events="none"><text text-anchor="start" transform="translate(19,12.5)" font-family="sans-serif" font-size="15px" fill="#000" opacity="1">deberta</text></g></g><path class="foreground" aria-hidden="true" d="" pointer-events="none" display="none"/></g><g transform="translate(0,18)"><path class="background" aria-hidden="true" d="M0,0h157.5454559326172v15.5h-157.5454559326172Z" pointer-events="none" opacity="1"/><g><g class="mark-symbol role-legend-symbol" pointer-events="none"><path transform="translate(7.5,7.5)" d="M-5,-5h10v10h-10Z" fill="#f58518" stroke-width="1.5" opacity="1"/></g><g class="mark-text role-legend-label" pointer-events="none"><text text-anchor="start" transform="translate(19,12.5)" font-family="sans-serif" font-size="15px" fill="#000" opacity="1">ensemble</text></g></g><path class="foreground" aria-hidden="true" d="" pointer-events="none" display="none"/></g><g transform="translate(0,36)"><path class="background" aria-hidden="true" d="M0,0h157.5454559326172v15.5h-157.5454559326172Z" pointer-events="none" opacity="1"/><g><g class="mark-symbol role-legend-symbol" pointer-events="none"><path transform="translate(7.5,7.5)" d="M-5,-5h10v10h-10Z" fill="#e45756" stroke-width="1.5" opacity="1"/></g><g class="mark-text role-legend-label" pointer-events="none"><text text-anchor="start" transform="translate(19,12.5)" font-family="sans-serif" font-size="15px" fill="#000" opacity="1">female</text></g></g><path class="foreground" aria-hidden="true" d="" pointer-events="none" display="none"/></g><g transform="translate(0,54)"><path class="background" aria-hidden="true" d="M0,0h157.5454559326172v15.5h-157.5454559326172Z" pointer-events="none" opacity="1"/><g><g class="mark-symbol role-legend-symbol" pointer-events="none"><path transform="translate(7.5,7.5)" d="M-5,-5h10v10h-10Z" fill="#72b7b2" stroke-width="1.5" opacity="1"/></g><g class="mark-text role-legend-label" pointer-events="none"><text text-anchor="start" transform="translate(19,12.5)" font-family="sans-serif" font-size="15px" fill="#000" opacity="1">female_negative</text></g></g><path class="foreground" aria-hidden="true" d="" pointer-events="none" display="none"/></g><g transform="translate(0,72)"><path class="background" aria-hidden="true" d="M0,0h157.5454559326172v15.5h-157.5454559326172Z" pointer-events="none" opacity="1"/><g><g class="mark-symbol role-legend-symbol" pointer-events="none"><path transform="translate(7.5,7.5)" d="M-5,-5h10v10h-10Z" fill="#54a24b" stroke-width="1.5" opacity="1"/></g><g class="mark-text role-legend-label" pointer-events="none"><text text-anchor="start" transform="translate(19,12.5)" font-family="sans-serif" font-size="15px" fill="#000" opacity="1">negative</text></g></g><path class="foreground" aria-hidden="true" d="" pointer-events="none" display="none"/></g><g transform="translate(0,90)"><path class="background" aria-hidden="true" d="M0,0h157.5454559326172v15.5h-157.5454559326172Z" pointer-events="none" opacity="1"/><g><g class="mark-symbol role-legend-symbol" pointer-events="none"><path transform="translate(7.5,7.5)" d="M-5,-5h10v10h-10Z" fill="#eeca3b" stroke-width="1.5" opacity="1"/></g><g class="mark-text role-legend-label" pointer-events="none"><text text-anchor="start" transform="translate(19,12.5)" font-family="sans-serif" font-size="15px" fill="#000" opacity="1">swear</text></g></g><path class="foreground" aria-hidden="true" d="" pointer-events="none" display="none"/></g></g></g><path class="foreground" aria-hidden="true" d="" pointer-events="none" display="none"/></g></g><g class="mark-text role-legend-title" pointer-events="none"><text text-anchor="start" transform="translate(0,12)" font-family="sans-serif" font-size="15px" font-weight="bold" fill="#000" opacity="1">model</text></g></g><path class="foreground" aria-hidden="true" d="" pointer-events="none" display="none"/></g></g><g class="mark-group role-title"><g transform="translate(504.1454544067383,-32)"><path class="background" aria-hidden="true" d="M0,0h0v0h0Z" pointer-events="none"/><g><g class="mark-text role-title-text" role="graphics-symbol" aria-roledescription="title" aria-label="Title text 'Performance metrics for ensemble models based on DeBERTa'" pointer-events="none"><text text-anchor="middle" transform="translate(0,16)" font-family="sans-serif" font-size="20px" font-weight="bold" fill="#000" opacity="1">Performance metrics for ensemble models based on DeBERTa</text></g></g><path class="foreground" aria-hidden="true" d="" pointer-events="none" display="none"/></g></g></g><path class="foreground" aria-hidden="true" d="" display="none"/></g></g></g></svg>